<svg width="100" height="100" xmlns="http://www.w3.org/2000/svg">

 <g>
  <title>background</title>
  <rect fill="none" id="canvas_background" height="402" width="582" y="-1" x="-1"/>
 </g>
 <g>
  <title>Layer 1</title>
  <path fill="#ffffff" id="svg_1" d="m66.6,48.8c-2,5.7 -7.5,9.8 -13.9,9.8s-11.8,-4.1 -13.9,-9.8c-10.9,1.6 -21.7,5 -32,10.4c4.3,19.9 22,34.9 43.2,34.9c22.1,0 40.3,-16.2 43.6,-37.3c-8.8,-4 -17.8,-6.6 -27,-8z"/>
  <path fill="#ffffff" stroke="#ffffff" id="svg_2" d="m53.004248,29.1c6.6,0 12.2,4.3 14.1,10.3c9.2,1.2 18.3,3.7 27.1,7.3c-1.7,-22.8 -20.7,-40.8 -44,-40.8c-24.1,0 -43.7,19.4 -44.1,43.4c10.6,-5 21.6,-8.3 32.8,-9.8c1.9,-6 7.5,-10.4 14.1,-10.4z"/>
  <circle fill="#ffffff" stroke="#ffffff" id="svg_3" r="8.5" cy="43.9" cx="52.8"/>
 </g>
</svg>