<svg xmlns="http://www.w3.org/2000/svg" xmlns:xlink="http://www.w3.org/1999/xlink" version="1.1" x="0px" y="0px" viewBox="0 0 100 125" enable-background="new 0 0 100 100" xml:space="preserve"><g><path d="M50,5C30.67,5,15,20.67,15,40c0,0.289,0.015,0.574,0.022,0.861c0.392-1.575,13.013-2.496,27.438-2.739   c0.841-3.386,3.893-5.899,7.54-5.899c3.643,0,6.692,2.508,7.537,5.889c14.427,0.224,27.05,1.133,27.441,2.748   C84.985,40.573,85,40.288,85,40C85,20.67,69.33,5,50,5z"/><path d="M50,47.778c-3.603,0-6.625-2.453-7.509-5.778c-13.41,0.208-25.268,1.006-27.205,2.414   c0.888,7.057,3.88,13.456,8.323,18.557c5.327,6.116,10.594,12.285,15.66,18.618L50,95l10.729-13.411   c5.072-6.34,10.348-12.511,15.677-18.637c4.433-5.096,7.418-11.485,8.307-18.53c-1.94-1.377-13.797-2.187-27.206-2.412   C56.619,45.33,53.599,47.778,50,47.778z M60.028,45.949c10.777,0.243,17.05,0.796,20.23,1.274   C76.975,61.052,64.508,71.111,50,71.111c-14.517,0-26.989-10.072-30.264-23.912c3.166-0.48,9.435-1.033,20.227-1.263   c2.06,3.482,5.845,5.731,10.037,5.731C54.184,51.667,57.966,49.423,60.028,45.949z"/><circle cx="50" cy="40" r="5.444"/></g><text x="0" y="115" fill="#000000" font-size="5px" font-weight="bold" font-family="'Helvetica Neue', Helvetica, Arial-Unicode, Arial, Sans-serif">Created by Curve</text><text x="0" y="120" fill="#000000" font-size="5px" font-weight="bold" font-family="'Helvetica Neue', Helvetica, Arial-Unicode, Arial, Sans-serif">from the Noun Project</text></svg>